<?xml version="1.0" encoding="UTF-8" standalone="no"?>
<!-- Created with Inkscape (http://www.inkscape.org/) -->
<svg
   xmlns:dc="http://purl.org/dc/elements/1.1/"
   xmlns:cc="http://web.resource.org/cc/"
   xmlns:rdf="http://www.w3.org/1999/02/22-rdf-syntax-ns#"
   xmlns:svg="http://www.w3.org/2000/svg"
   xmlns="http://www.w3.org/2000/svg"
   xmlns:sodipodi="http://sodipodi.sourceforge.net/DTD/sodipodi-0.dtd"
   xmlns:inkscape="http://www.inkscape.org/namespaces/inkscape"
   id="svg2"
   sodipodi:version="0.32"
   inkscape:version="0.45.1"
   width="930"
   height="1148.9"
   version="1.0"
   sodipodi:docbase="/home/butze/Desktop"
   sodipodi:docname="Logo WTO-OMC.svg"
   inkscape:output_extension="org.inkscape.output.svg.inkscape">
  <metadata
     id="metadata7">
    <rdf:RDF>
      <cc:Work
         rdf:about="">
        <dc:format>image/svg+xml</dc:format>
        <dc:type
           rdf:resource="http://purl.org/dc/dcmitype/StillImage" />
      </cc:Work>
    </rdf:RDF>
  </metadata>
  <defs
     id="defs5" />
  <sodipodi:namedview
     inkscape:window-height="752"
     inkscape:window-width="1280"
     inkscape:pageshadow="2"
     inkscape:pageopacity="0.0"
     guidetolerance="10.0"
     gridtolerance="10.0"
     objecttolerance="10.0"
     borderopacity="1.0"
     bordercolor="#666666"
     pagecolor="#ffffff"
     id="base"
     width="930px"
     height="1148.9px"
     inkscape:zoom="0.71637427"
     inkscape:cx="406.5"
     inkscape:cy="888.62951"
     inkscape:window-x="0"
     inkscape:window-y="25"
     inkscape:current-layer="svg2" />
  <g
     id="g6046"
     transform="matrix(1.6755414,0,0,1.6755414,-675.84792,2.3297001)">
    <path
       sodipodi:nodetypes="cccsssssccccsscccsscccccssc"
       id="path2161"
       d="M 713.45306,484.16032 L 713.45306,465.63247 L 722.20306,464.96486 C 788.27428,459.92375 850.17627,426.38759 893.99232,371.89592 C 908.64009,353.67928 927.21798,321.68649 936.96338,297.89592 C 941.68169,286.37753 942.79345,285.22743 942.03834,292.64592 C 941.71643,295.80842 941.19674,300.98342 940.88345,304.14592 C 938.17389,331.4979 924.03334,367.56771 904.71843,396.39592 C 862.21072,459.84022 797.66311,498.01769 726.20306,501.98102 L 713.45306,502.68817 L 713.45306,484.16032 z M 519.45306,300.81209 C 517.52806,300.58821 511.67806,299.9093 506.45306,299.3034 C 471.36566,295.23459 443.7218,281.03753 429.50859,259.78701 C 424.37424,252.11052 420.88126,243.12363 419.83405,234.89592 L 419.19765,229.89592 L 424.18357,236.90694 C 440.54457,259.91319 463.10664,269.34932 509.09573,272.41975 C 564.77379,276.13705 628.38707,263.64874 688.45306,237.20902 C 711.97521,226.85509 737.3931,212.04185 752.57329,199.84053 L 759.19351,194.51942 L 771.57329,206.44077 L 783.95306,218.36212 L 778.45306,223.56358 C 765.64167,235.67956 725.48956,257.98945 694.95306,269.95904 C 658.03865,284.42863 619.00038,294.37811 581.45306,298.88621 C 568.75398,300.41092 527.12279,301.70409 519.45306,300.81209 z "
       style="fill:#00853e;fill-opacity:1" />
    <path
       sodipodi:nodetypes="cscccssscccssccssssssssssccc"
       style="fill:#1b3e94;fill-opacity:1"
       d="M 576.07586,443.28477 C 543.16698,441.1869 514.04802,432.99688 492.75221,419.84909 C 484.2515,414.60085 468.77766,399.93619 465.97878,394.47574 L 464.22569,391.05556 L 467.58938,393.26644 C 479.51011,401.10172 498.20013,408.02286 516.74759,411.47031 C 545.554,416.82463 598.15069,414.4045 650.45306,405.31814 C 711.02019,394.79595 773.89503,374.03544 807.87209,353.34028 C 816.04624,348.36147 813.7958,347.52913 831.74018,362.16798 L 844.58614,372.64758 L 841.7696,375.60451 C 834.7751,382.94767 802.82656,399.79197 775.95306,410.30512 C 725.69161,429.96784 675.37845,440.49633 617.95306,443.36808 C 595.9198,444.46992 594.62668,444.46735 576.07586,443.28477 z M 576.45306,200.45494 C 576.45306,191.1374 576.79056,183.3066 577.20306,183.05318 C 577.61556,182.79975 585.15306,180.92187 593.95306,178.88012 C 676.91698,159.63105 743.48003,128.72155 775.6803,94.492459 C 793.79945,75.23169 800.95723,57.75209 797.02836,42.359611 C 794.12524,30.9858 784.81878,18.765061 772.96641,10.762737 C 766.23028,6.2147304 767.97566,6.5260435 777.76388,11.618432 C 792.37454,19.219736 806.433,31.040589 812.67494,40.972898 C 820.32826,53.151024 822.00904,68.508424 817.18723,82.201769 C 806.72628,111.90953 772.42641,141.91219 716.45306,170.3156 C 684.99224,186.28024 655.87689,198.06987 624.66878,207.48165 C 607.48894,212.66277 586.20067,217.39592 580.07742,217.39592 L 576.45306,217.39592 L 576.45306,200.45494 z "
       id="path2163" />
    <path
       sodipodi:nodetypes="cssssssssssssccccssssssscccccssc"
       id="path2165"
       d="M 606.45306,354.16354 C 606.45306,336.82509 606.4782,336.62245 608.70306,336.02621 C 609.94056,335.69457 612.3722,335.41708 614.10671,335.40957 C 615.84121,335.40206 624.16621,334.23199 632.60671,332.80941 C 677.80348,325.19183 734.9745,306.18021 779.6155,283.92318 C 818.28443,264.6437 844.57809,246.50371 867.95306,222.97913 C 882.99996,207.83592 891.4786,196.34872 899.01446,180.89592 C 908.66335,161.1102 912.32565,142.17013 910.41065,121.95892 C 909.89282,116.49357 909.21721,111.09357 908.90932,109.95892 C 908.35154,107.90341 908.35537,107.90318 909.96631,109.89592 C 913.02589,113.68064 918.47287,126.15345 920.46119,133.92773 C 926.03054,155.70364 920.26998,186.60011 905.9134,211.95416 C 890.10752,239.8677 859.9088,270.2183 823.04591,295.23841 C 762.18332,336.54795 676.57102,368.40914 619.20306,371.09989 L 606.45306,371.6979 L 606.45306,354.16354 z M 523.45306,145.94191 C 500.43268,141.0184 488.45306,129.53949 488.45306,112.40481 C 488.45306,101.96605 497.22758,77.279024 503.3843,70.395918 C 505.23424,68.327715 505.49373,68.241356 504.88671,69.895918 C 504.48315,70.995918 503.94655,76.198739 503.69426,81.457742 C 503.29619,89.75565 503.52928,91.702324 505.45758,96.184792 C 508.13095,102.3992 514.6446,108.67863 521.82949,111.96798 C 536.18882,118.5419 566.08671,116.93742 597.36112,107.91454 C 627.49483,99.220764 663.7654,79.07179 686.86106,58.195661 L 693.76906,51.951532 L 705.12026,63.923725 L 716.47146,75.895918 L 706.55839,85.545893 C 694.01964,97.751876 679.79799,107.22426 657.95306,117.91967 C 631.91449,130.66832 608.60194,138.68386 582.087,144.00465 C 565.85047,147.26286 534.47603,148.29947 523.45306,145.94191 z "
       style="fill:#ef4035;fill-opacity:1" />
    <path
       sodipodi:nodetypes="cssssssssssssssssssssssssssssssccsssssssccsssccssssssccssssssssccssscccccsssscccccccscccsssssssssscccssssccssssscccccccccsssssssssssssssssssc"
       style="fill:#000000"
       d="M 430.3717,648.26489 C 425.74145,633.34282 421.15617,619.8165 420.18219,618.2064 C 419.20821,616.5963 417.07356,614.51776 415.43851,613.58743 C 409.37488,610.13726 411.49985,609.39592 427.45306,609.39592 C 440.03396,609.39592 442.45306,609.63476 442.45306,610.87687 C 442.45306,611.69139 441.36118,612.63186 440.02666,612.9668 C 438.69213,613.30175 436.88641,614.36458 436.01394,615.32865 C 434.5599,616.93534 434.63453,617.78255 436.90887,625.48871 C 438.27355,630.11268 440.61316,638.05842 442.108,643.14592 C 443.60284,648.23342 445.10529,652.39592 445.44678,652.39592 C 445.78827,652.39592 448.57318,645.30842 451.63547,636.64592 C 456.83692,621.93222 457.10981,620.7125 455.78297,618.10819 C 455.00181,616.57494 452.80802,614.5791 450.90787,613.67298 C 449.00772,612.76686 447.45306,611.43384 447.45306,610.71071 C 447.45306,609.68276 450.72552,609.39592 462.45306,609.39592 C 474.20795,609.39592 477.45306,609.68139 477.45306,610.71545 C 477.45306,611.4412 475.99056,612.6787 474.20306,613.46545 C 469.46702,615.54999 469.61413,618.44982 475.41038,637.2645 C 478.18385,646.26722 480.48921,653.91722 480.5334,654.2645 C 480.67814,655.40211 488.44542,631.05018 490.01402,624.5409 C 491.38162,618.86575 491.38366,617.93895 490.03314,615.8778 C 489.20137,614.60835 487.15558,613.26986 485.48694,612.90336 C 483.81831,612.53687 482.45306,611.59776 482.45306,610.81646 C 482.45306,609.65922 484.95532,609.39592 495.95306,609.39592 C 506.4033,609.39592 509.45306,609.69131 509.45306,610.70347 C 509.45306,611.42263 507.63765,612.81198 505.41881,613.79093 C 503.19997,614.76988 500.72998,616.56984 499.92996,617.79084 C 499.12993,619.01183 494.05385,632.35998 488.64978,647.45338 C 475.73298,683.52957 476.71108,683.31705 467.09142,652.1375 C 463.22958,639.62038 459.77298,629.72038 459.4101,630.1375 C 459.04721,630.55463 455.24611,640.90842 450.9632,653.14592 C 440.37384,683.40277 441.34635,683.6333 430.3717,648.26489 z M 613.38241,674.09189 C 603.39341,671.26015 595.20582,664.42017 591.06377,655.44673 C 587.81412,648.4066 588.06032,634.79959 591.57288,627.30944 C 596.8705,616.01281 607.70514,608.93928 621.4905,607.77735 C 637.9445,606.39048 652.43247,613.60357 658.68654,626.29606 C 660.60788,630.19538 660.95199,632.49502 660.94604,641.39592 C 660.93974,650.82884 660.66816,652.4105 658.27373,656.95938 C 654.9415,663.28984 648.84072,668.87127 641.66022,672.15862 C 634.97633,675.2186 620.78047,676.18913 613.38241,674.09189 z M 634.91553,667.97078 C 645.75278,661.61973 649.22815,641.50584 642.15699,626.0604 C 639.40633,620.05217 636.672,617.10802 631.2429,614.30884 C 620.58395,608.8132 608.54609,616.40922 605.51482,630.54353 C 599.98953,656.30709 617.27351,678.30969 634.91553,667.97078 z M 740.07705,673.82242 C 733.40336,671.68659 728.55098,668.45013 723.61484,662.84238 C 714.40236,652.37645 713.86372,634.38009 722.39195,621.98473 C 736.71201,601.17125 774.70783,603.42759 786.17755,625.77257 C 789.92867,633.08039 790.5295,645.54989 787.51564,653.54301 C 784.57904,661.33123 778.73421,667.63989 770.8669,671.51295 C 765.18539,674.30995 763.18759,674.74538 754.66954,675.0432 C 747.80449,675.28323 743.52213,674.92498 740.07705,673.82242 z M 763.29956,667.64592 C 766.25939,665.72931 768.36565,663.22914 770.24973,659.39592 C 772.69308,654.42486 772.9521,652.83804 772.94309,642.89592 C 772.93457,633.49821 772.58941,631.13241 770.57354,626.65428 C 765.9354,616.35097 756.61907,610.9048 747.61644,613.23395 C 741.67404,614.77137 737.40754,619.24169 734.48891,626.98861 C 732.63124,631.91945 732.32693,634.40043 732.64794,641.99766 C 732.97919,649.83718 733.49254,652.03382 736.34966,657.83746 C 738.94713,663.11367 740.66238,665.2069 744.25571,667.48572 C 750.52952,671.46445 757.31444,671.52153 763.29956,667.64592 z M 916.70373,673.91253 C 905.43984,670.74691 897.1304,664.27757 893.11199,655.54509 C 889.99918,648.78057 890.10426,635.87933 893.33081,628.68216 C 897.76461,618.79205 909.16886,610.69184 922.05888,608.27718 C 928.27872,607.11204 939.4153,607.6555 945.70306,609.43102 L 949.45306,610.48993 L 949.4311,619.19292 L 949.40914,627.89592 L 947.56302,623.89592 C 943.07423,614.17002 932.97406,610.18389 922.33251,613.93845 C 916.68086,615.93247 912.16643,620.37236 909.27776,626.77766 C 907.40573,630.92865 906.97519,633.59678 906.99953,640.89592 C 907.02589,648.79721 907.38449,650.6062 909.93696,655.71412 C 918.00512,671.85982 935.37729,675.35774 946.21164,663.0181 L 949.45306,659.32633 L 949.45306,665.69334 L 949.45306,672.06036 L 945.70306,673.31153 C 939.77605,675.28907 922.84987,675.63985 916.70373,673.91253 z M 528.95306,673.39592 C 527.87505,671.65167 529.29965,670.64601 533.80574,669.97028 C 542.85765,668.61286 543.34853,666.85185 543.40951,635.51675 L 543.45306,613.13759 L 537.26658,613.83751 C 527.78426,614.91031 524.18004,617.4871 520.63995,625.72447 C 519.5416,628.2802 516.90801,629.06404 516.984,626.81259 C 517.00102,626.30842 517.38052,621.50842 517.82733,616.14592 C 518.53318,607.6745 518.87882,606.39592 520.46305,606.39592 C 521.46589,606.39592 522.47345,606.95842 522.70207,607.64592 C 523.01643,608.59123 529.27685,608.96892 548.3854,609.19541 C 569.86976,609.45006 574.00712,609.2629 576.01787,607.94541 C 580.35902,605.10098 580.43066,605.26429 582.02791,621.64592 C 582.59342,627.44585 582.46042,628.39592 581.08298,628.39592 C 580.17856,628.39592 578.80369,626.77753 577.92834,624.68252 C 574.96909,617.60004 570.91981,614.82084 562.03919,613.7771 L 556.45306,613.12056 L 556.45306,638.62338 C 556.45306,662.82253 556.55789,664.25948 558.50385,666.73336 C 560.02403,668.66596 561.83515,669.51038 565.50385,669.99705 C 569.4389,670.51905 570.45306,671.03701 570.45306,672.52475 C 570.45306,674.29195 569.31727,674.39592 550.01208,674.39592 C 537.46344,674.39592 529.33247,674.00982 528.95306,673.39592 z M 794.95306,673.39592 C 794.00273,671.85825 795.16896,670.64479 798.725,669.47119 C 800.50924,668.88233 802.54766,667.47409 803.25481,666.34176 C 805.24331,663.15767 811.11194,618.66983 809.81814,616.58767 C 809.23997,615.65721 806.89631,614.2348 804.61,613.42675 C 802.32368,612.61871 800.45306,611.38121 800.45306,610.67675 C 800.45306,609.70395 803.45924,609.39592 812.95306,609.39592 L 825.45306,609.39592 L 825.45306,613.04304 C 825.45306,616.33567 829.40222,626.48716 839.12936,648.19854 L 841.95306,654.50117 L 850.31555,635.09895 C 857.22888,619.05899 858.55813,615.15079 857.9861,612.54633 L 857.29415,609.39592 L 871.3736,609.39592 C 882.48378,609.39592 885.45306,609.67888 885.45306,610.73763 C 885.45306,611.47557 883.65124,612.61918 881.44902,613.27898 C 874.21999,615.44485 874.01622,616.37681 875.37118,641.07541 C 876.75127,666.23203 877.22699,667.80821 883.98517,669.61575 C 887.16967,670.46747 888.45306,671.32565 888.45306,672.60332 C 888.45306,674.26219 887.0729,674.39592 869.95306,674.39592 C 852.11973,674.39592 851.45306,674.32385 851.45306,672.39592 C 851.45306,671.11634 852.11973,670.39592 853.30384,670.39592 C 857.01661,670.39592 861.20542,668.23485 862.34636,665.73075 C 863.23432,663.7819 863.24434,658.44497 862.38803,643.53052 C 861.76801,632.73149 861.17091,623.80034 861.06115,623.68351 C 860.95139,623.56669 856.09653,634.81669 850.27259,648.68351 C 841.95223,668.49429 839.26281,673.96014 837.71958,674.19565 C 836.03306,674.45303 834.29093,671.01198 825.38928,649.84075 C 819.68782,636.2807 814.92465,625.57083 814.80446,626.04102 C 814.68427,626.51122 814.08964,635.16238 813.48306,645.26583 C 812.22103,666.28662 812.50278,667.43171 819.44902,669.51286 C 822.23743,670.34829 823.45306,671.27164 823.45306,672.55421 C 823.45306,674.25509 822.387,674.39592 809.51208,674.39592 C 801.29678,674.39592 795.31726,673.98521 794.95306,673.39592 z "
       id="path2167" />
  </g>
</svg>
